<svg xmlns="http://www.w3.org/2000/svg" xmlns:xlink="http://www.w3.org/1999/xlink" style="margin:auto;background:#ffffff;display:block;z-index:1;position:relative" width="1777" height="929" preserveAspectRatio="xMidYMid" viewBox="0 0 1777 929">
<g transform="translate(888.5,464.5) scale(1,1) translate(-888.5,-464.5)"><g transform="translate(-100 413.56173034025244) rotate(0)">
  <animateTransform attributeName="transform" type="translate" keyTimes="0;1" values="-100 413.56173034025244;1777 413.56173034025244" dur="120s" repeatCount="indefinite" begin="-15.977899032613937s"></animateTransform>
  <path d="M84.717,33.597c0.791-2.503,1.186-5.138,1.186-7.773C85.903,11.594,74.308,0,60.079,0 c-9.881,0-18.445,5.534-22.793,13.702c-1.581-0.527-3.426-0.791-5.138-0.791c-9.486,0-17.128,7.642-17.128,17.128 c0,1.186,0.132,2.372,0.395,3.426C6.719,34.783,0,42.424,0,51.515C0,61.66,8.169,69.829,18.314,69.829h63.373 C91.831,69.829,100,61.66,100,51.515C99.868,42.556,93.281,35.046,84.717,33.597z" fill="#cad7e3" transform="scale(0.55)"></path>
</g><g transform="translate(-100 142.6770755121616) rotate(0)">
  <animateTransform attributeName="transform" type="translate" keyTimes="0;1" values="-100 142.6770755121616;1777 142.6770755121616" dur="120s" repeatCount="indefinite" begin="-31.76907770494852s"></animateTransform>
  <path d="M84.717,33.597c0.791-2.503,1.186-5.138,1.186-7.773C85.903,11.594,74.308,0,60.079,0 c-9.881,0-18.445,5.534-22.793,13.702c-1.581-0.527-3.426-0.791-5.138-0.791c-9.486,0-17.128,7.642-17.128,17.128 c0,1.186,0.132,2.372,0.395,3.426C6.719,34.783,0,42.424,0,51.515C0,61.66,8.169,69.829,18.314,69.829h63.373 C91.831,69.829,100,61.66,100,51.515C99.868,42.556,93.281,35.046,84.717,33.597z" fill="#cad7e3" transform="scale(0.55)"></path>
</g><g transform="translate(-100 238.7238834147725) rotate(0)">
  <animateTransform attributeName="transform" type="translate" keyTimes="0;1" values="-100 238.7238834147725;1777 238.7238834147725" dur="120s" repeatCount="indefinite" begin="-37.93548193708326s"></animateTransform>
  <path d="M84.717,33.597c0.791-2.503,1.186-5.138,1.186-7.773C85.903,11.594,74.308,0,60.079,0 c-9.881,0-18.445,5.534-22.793,13.702c-1.581-0.527-3.426-0.791-5.138-0.791c-9.486,0-17.128,7.642-17.128,17.128 c0,1.186,0.132,2.372,0.395,3.426C6.719,34.783,0,42.424,0,51.515C0,61.66,8.169,69.829,18.314,69.829h63.373 C91.831,69.829,100,61.66,100,51.515C99.868,42.556,93.281,35.046,84.717,33.597z" fill="#cad7e3" transform="scale(0.55)"></path>
</g><g transform="translate(-100 633.3802513995629) rotate(0)">
  <animateTransform attributeName="transform" type="translate" keyTimes="0;1" values="-100 633.3802513995629;1777 633.3802513995629" dur="120s" repeatCount="indefinite" begin="-38.085171538541935s"></animateTransform>
  <path d="M84.717,33.597c0.791-2.503,1.186-5.138,1.186-7.773C85.903,11.594,74.308,0,60.079,0 c-9.881,0-18.445,5.534-22.793,13.702c-1.581-0.527-3.426-0.791-5.138-0.791c-9.486,0-17.128,7.642-17.128,17.128 c0,1.186,0.132,2.372,0.395,3.426C6.719,34.783,0,42.424,0,51.515C0,61.66,8.169,69.829,18.314,69.829h63.373 C91.831,69.829,100,61.66,100,51.515C99.868,42.556,93.281,35.046,84.717,33.597z" fill="#cad7e3" transform="scale(0.55)"></path>
</g><g transform="translate(-100 103.69938224746048) rotate(0)">
  <animateTransform attributeName="transform" type="translate" keyTimes="0;1" values="-100 103.69938224746048;1777 103.69938224746048" dur="120s" repeatCount="indefinite" begin="-60.34407660914027s"></animateTransform>
  <path d="M84.717,33.597c0.791-2.503,1.186-5.138,1.186-7.773C85.903,11.594,74.308,0,60.079,0 c-9.881,0-18.445,5.534-22.793,13.702c-1.581-0.527-3.426-0.791-5.138-0.791c-9.486,0-17.128,7.642-17.128,17.128 c0,1.186,0.132,2.372,0.395,3.426C6.719,34.783,0,42.424,0,51.515C0,61.66,8.169,69.829,18.314,69.829h63.373 C91.831,69.829,100,61.66,100,51.515C99.868,42.556,93.281,35.046,84.717,33.597z" fill="#cad7e3" transform="scale(0.55)"></path>
</g><g transform="translate(-100 851.7688718923256) rotate(0)">
  <animateTransform attributeName="transform" type="translate" keyTimes="0;1" values="-100 851.7688718923256;1777 851.7688718923256" dur="120s" repeatCount="indefinite" begin="-1.7758760055264964s"></animateTransform>
  <path d="M84.717,33.597c0.791-2.503,1.186-5.138,1.186-7.773C85.903,11.594,74.308,0,60.079,0 c-9.881,0-18.445,5.534-22.793,13.702c-1.581-0.527-3.426-0.791-5.138-0.791c-9.486,0-17.128,7.642-17.128,17.128 c0,1.186,0.132,2.372,0.395,3.426C6.719,34.783,0,42.424,0,51.515C0,61.66,8.169,69.829,18.314,69.829h63.373 C91.831,69.829,100,61.66,100,51.515C99.868,42.556,93.281,35.046,84.717,33.597z" fill="#cad7e3" transform="scale(0.55)"></path>
</g><g transform="translate(-100 529.6735745885879) rotate(0)">
  <animateTransform attributeName="transform" type="translate" keyTimes="0;1" values="-100 529.6735745885879;1777 529.6735745885879" dur="120s" repeatCount="indefinite" begin="-22.965901205335356s"></animateTransform>
  <path d="M84.717,33.597c0.791-2.503,1.186-5.138,1.186-7.773C85.903,11.594,74.308,0,60.079,0 c-9.881,0-18.445,5.534-22.793,13.702c-1.581-0.527-3.426-0.791-5.138-0.791c-9.486,0-17.128,7.642-17.128,17.128 c0,1.186,0.132,2.372,0.395,3.426C6.719,34.783,0,42.424,0,51.515C0,61.66,8.169,69.829,18.314,69.829h63.373 C91.831,69.829,100,61.66,100,51.515C99.868,42.556,93.281,35.046,84.717,33.597z" fill="#cad7e3" transform="scale(0.55)"></path>
</g><g transform="translate(-100 586.8874117155353) rotate(0)">
  <animateTransform attributeName="transform" type="translate" keyTimes="0;1" values="-100 586.8874117155353;1777 586.8874117155353" dur="120s" repeatCount="indefinite" begin="-23.94416267498758s"></animateTransform>
  <path d="M84.717,33.597c0.791-2.503,1.186-5.138,1.186-7.773C85.903,11.594,74.308,0,60.079,0 c-9.881,0-18.445,5.534-22.793,13.702c-1.581-0.527-3.426-0.791-5.138-0.791c-9.486,0-17.128,7.642-17.128,17.128 c0,1.186,0.132,2.372,0.395,3.426C6.719,34.783,0,42.424,0,51.515C0,61.66,8.169,69.829,18.314,69.829h63.373 C91.831,69.829,100,61.66,100,51.515C99.868,42.556,93.281,35.046,84.717,33.597z" fill="#cad7e3" transform="scale(0.55)"></path>
</g><g transform="translate(-100 57.552083489717646) rotate(0)">
  <animateTransform attributeName="transform" type="translate" keyTimes="0;1" values="-100 57.552083489717646;1777 57.552083489717646" dur="120s" repeatCount="indefinite" begin="-11.048271190145043s"></animateTransform>
  <path d="M84.717,33.597c0.791-2.503,1.186-5.138,1.186-7.773C85.903,11.594,74.308,0,60.079,0 c-9.881,0-18.445,5.534-22.793,13.702c-1.581-0.527-3.426-0.791-5.138-0.791c-9.486,0-17.128,7.642-17.128,17.128 c0,1.186,0.132,2.372,0.395,3.426C6.719,34.783,0,42.424,0,51.515C0,61.66,8.169,69.829,18.314,69.829h63.373 C91.831,69.829,100,61.66,100,51.515C99.868,42.556,93.281,35.046,84.717,33.597z" fill="#cad7e3" transform="scale(0.55)"></path>
</g><g transform="translate(-100 827.0045272780652) rotate(0)">
  <animateTransform attributeName="transform" type="translate" keyTimes="0;1" values="-100 827.0045272780652;1777 827.0045272780652" dur="120s" repeatCount="indefinite" begin="-36.23597618015538s"></animateTransform>
  <path d="M84.717,33.597c0.791-2.503,1.186-5.138,1.186-7.773C85.903,11.594,74.308,0,60.079,0 c-9.881,0-18.445,5.534-22.793,13.702c-1.581-0.527-3.426-0.791-5.138-0.791c-9.486,0-17.128,7.642-17.128,17.128 c0,1.186,0.132,2.372,0.395,3.426C6.719,34.783,0,42.424,0,51.515C0,61.66,8.169,69.829,18.314,69.829h63.373 C91.831,69.829,100,61.66,100,51.515C99.868,42.556,93.281,35.046,84.717,33.597z" fill="#cad7e3" transform="scale(0.55)"></path>
</g><g transform="translate(-100 765.7409108553502) rotate(0)">
  <animateTransform attributeName="transform" type="translate" keyTimes="0;1" values="-100 765.7409108553502;1777 765.7409108553502" dur="120s" repeatCount="indefinite" begin="-46.617275695922416s"></animateTransform>
  <path d="M84.717,33.597c0.791-2.503,1.186-5.138,1.186-7.773C85.903,11.594,74.308,0,60.079,0 c-9.881,0-18.445,5.534-22.793,13.702c-1.581-0.527-3.426-0.791-5.138-0.791c-9.486,0-17.128,7.642-17.128,17.128 c0,1.186,0.132,2.372,0.395,3.426C6.719,34.783,0,42.424,0,51.515C0,61.66,8.169,69.829,18.314,69.829h63.373 C91.831,69.829,100,61.66,100,51.515C99.868,42.556,93.281,35.046,84.717,33.597z" fill="#cad7e3" transform="scale(0.55)"></path>
</g><g transform="translate(-100 558.7393492707491) rotate(0)">
  <animateTransform attributeName="transform" type="translate" keyTimes="0;1" values="-100 558.7393492707491;1777 558.7393492707491" dur="60s" repeatCount="indefinite" begin="-17.55846171149734s"></animateTransform>
  <path d="M84.717,33.597c0.791-2.503,1.186-5.138,1.186-7.773C85.903,11.594,74.308,0,60.079,0 c-9.881,0-18.445,5.534-22.793,13.702c-1.581-0.527-3.426-0.791-5.138-0.791c-9.486,0-17.128,7.642-17.128,17.128 c0,1.186,0.132,2.372,0.395,3.426C6.719,34.783,0,42.424,0,51.515C0,61.66,8.169,69.829,18.314,69.829h63.373 C91.831,69.829,100,61.66,100,51.515C99.868,42.556,93.281,35.046,84.717,33.597z" fill="#bddeff" transform="scale(0.7)"></path>
</g><g transform="translate(-100 877.5880982478845) rotate(0)">
  <animateTransform attributeName="transform" type="translate" keyTimes="0;1" values="-100 877.5880982478845;1777 877.5880982478845" dur="60s" repeatCount="indefinite" begin="-58.67197955468699s"></animateTransform>
  <path d="M84.717,33.597c0.791-2.503,1.186-5.138,1.186-7.773C85.903,11.594,74.308,0,60.079,0 c-9.881,0-18.445,5.534-22.793,13.702c-1.581-0.527-3.426-0.791-5.138-0.791c-9.486,0-17.128,7.642-17.128,17.128 c0,1.186,0.132,2.372,0.395,3.426C6.719,34.783,0,42.424,0,51.515C0,61.66,8.169,69.829,18.314,69.829h63.373 C91.831,69.829,100,61.66,100,51.515C99.868,42.556,93.281,35.046,84.717,33.597z" fill="#bddeff" transform="scale(0.7)"></path>
</g><g transform="translate(-100 218.27160839137855) rotate(0)">
  <animateTransform attributeName="transform" type="translate" keyTimes="0;1" values="-100 218.27160839137855;1777 218.27160839137855" dur="60s" repeatCount="indefinite" begin="-9.420154713080006s"></animateTransform>
  <path d="M84.717,33.597c0.791-2.503,1.186-5.138,1.186-7.773C85.903,11.594,74.308,0,60.079,0 c-9.881,0-18.445,5.534-22.793,13.702c-1.581-0.527-3.426-0.791-5.138-0.791c-9.486,0-17.128,7.642-17.128,17.128 c0,1.186,0.132,2.372,0.395,3.426C6.719,34.783,0,42.424,0,51.515C0,61.66,8.169,69.829,18.314,69.829h63.373 C91.831,69.829,100,61.66,100,51.515C99.868,42.556,93.281,35.046,84.717,33.597z" fill="#bddeff" transform="scale(0.7)"></path>
</g><g transform="translate(-100 804.6872361489822) rotate(0)">
  <animateTransform attributeName="transform" type="translate" keyTimes="0;1" values="-100 804.6872361489822;1777 804.6872361489822" dur="60s" repeatCount="indefinite" begin="-24.34570662262104s"></animateTransform>
  <path d="M84.717,33.597c0.791-2.503,1.186-5.138,1.186-7.773C85.903,11.594,74.308,0,60.079,0 c-9.881,0-18.445,5.534-22.793,13.702c-1.581-0.527-3.426-0.791-5.138-0.791c-9.486,0-17.128,7.642-17.128,17.128 c0,1.186,0.132,2.372,0.395,3.426C6.719,34.783,0,42.424,0,51.515C0,61.66,8.169,69.829,18.314,69.829h63.373 C91.831,69.829,100,61.66,100,51.515C99.868,42.556,93.281,35.046,84.717,33.597z" fill="#bddeff" transform="scale(0.7)"></path>
</g><g transform="translate(-100 815.8850610294869) rotate(0)">
  <animateTransform attributeName="transform" type="translate" keyTimes="0;1" values="-100 815.8850610294869;1777 815.8850610294869" dur="60s" repeatCount="indefinite" begin="-65.87111903367138s"></animateTransform>
  <path d="M84.717,33.597c0.791-2.503,1.186-5.138,1.186-7.773C85.903,11.594,74.308,0,60.079,0 c-9.881,0-18.445,5.534-22.793,13.702c-1.581-0.527-3.426-0.791-5.138-0.791c-9.486,0-17.128,7.642-17.128,17.128 c0,1.186,0.132,2.372,0.395,3.426C6.719,34.783,0,42.424,0,51.515C0,61.66,8.169,69.829,18.314,69.829h63.373 C91.831,69.829,100,61.66,100,51.515C99.868,42.556,93.281,35.046,84.717,33.597z" fill="#bddeff" transform="scale(0.7)"></path>
</g><g transform="translate(-100 31.77865764693295) rotate(0)">
  <animateTransform attributeName="transform" type="translate" keyTimes="0;1" values="-100 31.77865764693295;1777 31.77865764693295" dur="60s" repeatCount="indefinite" begin="-5.311153879614998s"></animateTransform>
  <path d="M84.717,33.597c0.791-2.503,1.186-5.138,1.186-7.773C85.903,11.594,74.308,0,60.079,0 c-9.881,0-18.445,5.534-22.793,13.702c-1.581-0.527-3.426-0.791-5.138-0.791c-9.486,0-17.128,7.642-17.128,17.128 c0,1.186,0.132,2.372,0.395,3.426C6.719,34.783,0,42.424,0,51.515C0,61.66,8.169,69.829,18.314,69.829h63.373 C91.831,69.829,100,61.66,100,51.515C99.868,42.556,93.281,35.046,84.717,33.597z" fill="#bddeff" transform="scale(0.7)"></path>
</g><g transform="translate(-100 436.9246055237424) rotate(0)">
  <animateTransform attributeName="transform" type="translate" keyTimes="0;1" values="-100 436.9246055237424;1777 436.9246055237424" dur="60s" repeatCount="indefinite" begin="-34.946801400799544s"></animateTransform>
  <path d="M84.717,33.597c0.791-2.503,1.186-5.138,1.186-7.773C85.903,11.594,74.308,0,60.079,0 c-9.881,0-18.445,5.534-22.793,13.702c-1.581-0.527-3.426-0.791-5.138-0.791c-9.486,0-17.128,7.642-17.128,17.128 c0,1.186,0.132,2.372,0.395,3.426C6.719,34.783,0,42.424,0,51.515C0,61.66,8.169,69.829,18.314,69.829h63.373 C91.831,69.829,100,61.66,100,51.515C99.868,42.556,93.281,35.046,84.717,33.597z" fill="#bddeff" transform="scale(0.7)"></path>
</g><g transform="translate(-100 897.8766969561523) rotate(0)">
  <animateTransform attributeName="transform" type="translate" keyTimes="0;1" values="-100 897.8766969561523;1777 897.8766969561523" dur="60s" repeatCount="indefinite" begin="-55.16989454581055s"></animateTransform>
  <path d="M84.717,33.597c0.791-2.503,1.186-5.138,1.186-7.773C85.903,11.594,74.308,0,60.079,0 c-9.881,0-18.445,5.534-22.793,13.702c-1.581-0.527-3.426-0.791-5.138-0.791c-9.486,0-17.128,7.642-17.128,17.128 c0,1.186,0.132,2.372,0.395,3.426C6.719,34.783,0,42.424,0,51.515C0,61.66,8.169,69.829,18.314,69.829h63.373 C91.831,69.829,100,61.66,100,51.515C99.868,42.556,93.281,35.046,84.717,33.597z" fill="#bddeff" transform="scale(0.7)"></path>
</g><g transform="translate(-100 526.2398713434656) rotate(0)">
  <animateTransform attributeName="transform" type="translate" keyTimes="0;1" values="-100 526.2398713434656;1777 526.2398713434656" dur="60s" repeatCount="indefinite" begin="-61.33570629246395s"></animateTransform>
  <path d="M84.717,33.597c0.791-2.503,1.186-5.138,1.186-7.773C85.903,11.594,74.308,0,60.079,0 c-9.881,0-18.445,5.534-22.793,13.702c-1.581-0.527-3.426-0.791-5.138-0.791c-9.486,0-17.128,7.642-17.128,17.128 c0,1.186,0.132,2.372,0.395,3.426C6.719,34.783,0,42.424,0,51.515C0,61.66,8.169,69.829,18.314,69.829h63.373 C91.831,69.829,100,61.66,100,51.515C99.868,42.556,93.281,35.046,84.717,33.597z" fill="#bddeff" transform="scale(0.7)"></path>
</g><g transform="translate(-100 666.9059603540992) rotate(0)">
  <animateTransform attributeName="transform" type="translate" keyTimes="0;1" values="-100 666.9059603540992;1777 666.9059603540992" dur="60s" repeatCount="indefinite" begin="-25.139431060223423s"></animateTransform>
  <path d="M84.717,33.597c0.791-2.503,1.186-5.138,1.186-7.773C85.903,11.594,74.308,0,60.079,0 c-9.881,0-18.445,5.534-22.793,13.702c-1.581-0.527-3.426-0.791-5.138-0.791c-9.486,0-17.128,7.642-17.128,17.128 c0,1.186,0.132,2.372,0.395,3.426C6.719,34.783,0,42.424,0,51.515C0,61.66,8.169,69.829,18.314,69.829h63.373 C91.831,69.829,100,61.66,100,51.515C99.868,42.556,93.281,35.046,84.717,33.597z" fill="#bddeff" transform="scale(0.7)"></path>
</g><g transform="translate(-100 4.230200159499559) rotate(0)">
  <animateTransform attributeName="transform" type="translate" keyTimes="0;1" values="-100 4.230200159499559;1777 4.230200159499559" dur="60s" repeatCount="indefinite" begin="-47.213941202804754s"></animateTransform>
  <path d="M84.717,33.597c0.791-2.503,1.186-5.138,1.186-7.773C85.903,11.594,74.308,0,60.079,0 c-9.881,0-18.445,5.534-22.793,13.702c-1.581-0.527-3.426-0.791-5.138-0.791c-9.486,0-17.128,7.642-17.128,17.128 c0,1.186,0.132,2.372,0.395,3.426C6.719,34.783,0,42.424,0,51.515C0,61.66,8.169,69.829,18.314,69.829h63.373 C91.831,69.829,100,61.66,100,51.515C99.868,42.556,93.281,35.046,84.717,33.597z" fill="#bddeff" transform="scale(0.7)"></path>
</g><g transform="translate(-100 807.0274045627348) rotate(0)">
  <animateTransform attributeName="transform" type="translate" keyTimes="0;1" values="-100 807.0274045627348;1777 807.0274045627348" dur="80s" repeatCount="indefinite" begin="-49.42600985133594s"></animateTransform>
  <path d="M84.717,33.597c0.791-2.503,1.186-5.138,1.186-7.773C85.903,11.594,74.308,0,60.079,0 c-9.881,0-18.445,5.534-22.793,13.702c-1.581-0.527-3.426-0.791-5.138-0.791c-9.486,0-17.128,7.642-17.128,17.128 c0,1.186,0.132,2.372,0.395,3.426C6.719,34.783,0,42.424,0,51.515C0,61.66,8.169,69.829,18.314,69.829h63.373 C91.831,69.829,100,61.66,100,51.515C99.868,42.556,93.281,35.046,84.717,33.597z" fill="#7fa4c5" transform="scale(0.85)"></path>
</g><g transform="translate(-100 823.5997357240461) rotate(0)">
  <animateTransform attributeName="transform" type="translate" keyTimes="0;1" values="-100 823.5997357240461;1777 823.5997357240461" dur="80s" repeatCount="indefinite" begin="-19.573190255861824s"></animateTransform>
  <path d="M84.717,33.597c0.791-2.503,1.186-5.138,1.186-7.773C85.903,11.594,74.308,0,60.079,0 c-9.881,0-18.445,5.534-22.793,13.702c-1.581-0.527-3.426-0.791-5.138-0.791c-9.486,0-17.128,7.642-17.128,17.128 c0,1.186,0.132,2.372,0.395,3.426C6.719,34.783,0,42.424,0,51.515C0,61.66,8.169,69.829,18.314,69.829h63.373 C91.831,69.829,100,61.66,100,51.515C99.868,42.556,93.281,35.046,84.717,33.597z" fill="#7fa4c5" transform="scale(0.85)"></path>
</g><g transform="translate(-100 14.516909703928219) rotate(0)">
  <animateTransform attributeName="transform" type="translate" keyTimes="0;1" values="-100 14.516909703928219;1777 14.516909703928219" dur="80s" repeatCount="indefinite" begin="-27.361453953737595s"></animateTransform>
  <path d="M84.717,33.597c0.791-2.503,1.186-5.138,1.186-7.773C85.903,11.594,74.308,0,60.079,0 c-9.881,0-18.445,5.534-22.793,13.702c-1.581-0.527-3.426-0.791-5.138-0.791c-9.486,0-17.128,7.642-17.128,17.128 c0,1.186,0.132,2.372,0.395,3.426C6.719,34.783,0,42.424,0,51.515C0,61.66,8.169,69.829,18.314,69.829h63.373 C91.831,69.829,100,61.66,100,51.515C99.868,42.556,93.281,35.046,84.717,33.597z" fill="#7fa4c5" transform="scale(0.85)"></path>
</g><g transform="translate(-100 670.1803431377909) rotate(0)">
  <animateTransform attributeName="transform" type="translate" keyTimes="0;1" values="-100 670.1803431377909;1777 670.1803431377909" dur="80s" repeatCount="indefinite" begin="-21.9896806663572s"></animateTransform>
  <path d="M84.717,33.597c0.791-2.503,1.186-5.138,1.186-7.773C85.903,11.594,74.308,0,60.079,0 c-9.881,0-18.445,5.534-22.793,13.702c-1.581-0.527-3.426-0.791-5.138-0.791c-9.486,0-17.128,7.642-17.128,17.128 c0,1.186,0.132,2.372,0.395,3.426C6.719,34.783,0,42.424,0,51.515C0,61.66,8.169,69.829,18.314,69.829h63.373 C91.831,69.829,100,61.66,100,51.515C99.868,42.556,93.281,35.046,84.717,33.597z" fill="#7fa4c5" transform="scale(0.85)"></path>
</g><g transform="translate(-100 533.2420540163331) rotate(0)">
  <animateTransform attributeName="transform" type="translate" keyTimes="0;1" values="-100 533.2420540163331;1777 533.2420540163331" dur="80s" repeatCount="indefinite" begin="-56.25324275750947s"></animateTransform>
  <path d="M84.717,33.597c0.791-2.503,1.186-5.138,1.186-7.773C85.903,11.594,74.308,0,60.079,0 c-9.881,0-18.445,5.534-22.793,13.702c-1.581-0.527-3.426-0.791-5.138-0.791c-9.486,0-17.128,7.642-17.128,17.128 c0,1.186,0.132,2.372,0.395,3.426C6.719,34.783,0,42.424,0,51.515C0,61.66,8.169,69.829,18.314,69.829h63.373 C91.831,69.829,100,61.66,100,51.515C99.868,42.556,93.281,35.046,84.717,33.597z" fill="#7fa4c5" transform="scale(0.85)"></path>
</g><g transform="translate(-100 354.21081863537955) rotate(0)">
  <animateTransform attributeName="transform" type="translate" keyTimes="0;1" values="-100 354.21081863537955;1777 354.21081863537955" dur="80s" repeatCount="indefinite" begin="-7.938839069413107s"></animateTransform>
  <path d="M84.717,33.597c0.791-2.503,1.186-5.138,1.186-7.773C85.903,11.594,74.308,0,60.079,0 c-9.881,0-18.445,5.534-22.793,13.702c-1.581-0.527-3.426-0.791-5.138-0.791c-9.486,0-17.128,7.642-17.128,17.128 c0,1.186,0.132,2.372,0.395,3.426C6.719,34.783,0,42.424,0,51.515C0,61.66,8.169,69.829,18.314,69.829h63.373 C91.831,69.829,100,61.66,100,51.515C99.868,42.556,93.281,35.046,84.717,33.597z" fill="#7fa4c5" transform="scale(0.85)"></path>
</g><g transform="translate(-100 516.628711482496) rotate(0)">
  <animateTransform attributeName="transform" type="translate" keyTimes="0;1" values="-100 516.628711482496;1777 516.628711482496" dur="80s" repeatCount="indefinite" begin="-27.845320028119843s"></animateTransform>
  <path d="M84.717,33.597c0.791-2.503,1.186-5.138,1.186-7.773C85.903,11.594,74.308,0,60.079,0 c-9.881,0-18.445,5.534-22.793,13.702c-1.581-0.527-3.426-0.791-5.138-0.791c-9.486,0-17.128,7.642-17.128,17.128 c0,1.186,0.132,2.372,0.395,3.426C6.719,34.783,0,42.424,0,51.515C0,61.66,8.169,69.829,18.314,69.829h63.373 C91.831,69.829,100,61.66,100,51.515C99.868,42.556,93.281,35.046,84.717,33.597z" fill="#7fa4c5" transform="scale(0.85)"></path>
</g><g transform="translate(-100 8.692010376198427) rotate(0)">
  <animateTransform attributeName="transform" type="translate" keyTimes="0;1" values="-100 8.692010376198427;1777 8.692010376198427" dur="80s" repeatCount="indefinite" begin="-34.37972401094783s"></animateTransform>
  <path d="M84.717,33.597c0.791-2.503,1.186-5.138,1.186-7.773C85.903,11.594,74.308,0,60.079,0 c-9.881,0-18.445,5.534-22.793,13.702c-1.581-0.527-3.426-0.791-5.138-0.791c-9.486,0-17.128,7.642-17.128,17.128 c0,1.186,0.132,2.372,0.395,3.426C6.719,34.783,0,42.424,0,51.515C0,61.66,8.169,69.829,18.314,69.829h63.373 C91.831,69.829,100,61.66,100,51.515C99.868,42.556,93.281,35.046,84.717,33.597z" fill="#7fa4c5" transform="scale(0.85)"></path>
</g><g transform="translate(-100 240.3177092698226) rotate(0)">
  <animateTransform attributeName="transform" type="translate" keyTimes="0;1" values="-100 240.3177092698226;1777 240.3177092698226" dur="80s" repeatCount="indefinite" begin="-47.24728531208619s"></animateTransform>
  <path d="M84.717,33.597c0.791-2.503,1.186-5.138,1.186-7.773C85.903,11.594,74.308,0,60.079,0 c-9.881,0-18.445,5.534-22.793,13.702c-1.581-0.527-3.426-0.791-5.138-0.791c-9.486,0-17.128,7.642-17.128,17.128 c0,1.186,0.132,2.372,0.395,3.426C6.719,34.783,0,42.424,0,51.515C0,61.66,8.169,69.829,18.314,69.829h63.373 C91.831,69.829,100,61.66,100,51.515C99.868,42.556,93.281,35.046,84.717,33.597z" fill="#7fa4c5" transform="scale(0.85)"></path>
</g><g transform="translate(-100 59.30875611997834) rotate(0)">
  <animateTransform attributeName="transform" type="translate" keyTimes="0;1" values="-100 59.30875611997834;1777 59.30875611997834" dur="80s" repeatCount="indefinite" begin="-66.58979236096806s"></animateTransform>
  <path d="M84.717,33.597c0.791-2.503,1.186-5.138,1.186-7.773C85.903,11.594,74.308,0,60.079,0 c-9.881,0-18.445,5.534-22.793,13.702c-1.581-0.527-3.426-0.791-5.138-0.791c-9.486,0-17.128,7.642-17.128,17.128 c0,1.186,0.132,2.372,0.395,3.426C6.719,34.783,0,42.424,0,51.515C0,61.66,8.169,69.829,18.314,69.829h63.373 C91.831,69.829,100,61.66,100,51.515C99.868,42.556,93.281,35.046,84.717,33.597z" fill="#7fa4c5" transform="scale(0.85)"></path>
</g><g transform="translate(-100 78.81651118800337) rotate(0)">
  <animateTransform attributeName="transform" type="translate" keyTimes="0;1" values="-100 78.81651118800337;1777 78.81651118800337" dur="80s" repeatCount="indefinite" begin="-5.990523804209724s"></animateTransform>
  <path d="M84.717,33.597c0.791-2.503,1.186-5.138,1.186-7.773C85.903,11.594,74.308,0,60.079,0 c-9.881,0-18.445,5.534-22.793,13.702c-1.581-0.527-3.426-0.791-5.138-0.791c-9.486,0-17.128,7.642-17.128,17.128 c0,1.186,0.132,2.372,0.395,3.426C6.719,34.783,0,42.424,0,51.515C0,61.66,8.169,69.829,18.314,69.829h63.373 C91.831,69.829,100,61.66,100,51.515C99.868,42.556,93.281,35.046,84.717,33.597z" fill="#7fa4c5" transform="scale(0.85)"></path>
</g><g transform="translate(-100 192.43777207961142) rotate(0)">
  <animateTransform attributeName="transform" type="translate" keyTimes="0;1" values="-100 192.43777207961142;1777 192.43777207961142" dur="100s" repeatCount="indefinite" begin="-62.5050791638672s"></animateTransform>
  <path d="M84.717,33.597c0.791-2.503,1.186-5.138,1.186-7.773C85.903,11.594,74.308,0,60.079,0 c-9.881,0-18.445,5.534-22.793,13.702c-1.581-0.527-3.426-0.791-5.138-0.791c-9.486,0-17.128,7.642-17.128,17.128 c0,1.186,0.132,2.372,0.395,3.426C6.719,34.783,0,42.424,0,51.515C0,61.66,8.169,69.829,18.314,69.829h63.373 C91.831,69.829,100,61.66,100,51.515C99.868,42.556,93.281,35.046,84.717,33.597z" fill="#5684b2" transform="scale(1)"></path>
</g><g transform="translate(-100 34.39004917281586) rotate(0)">
  <animateTransform attributeName="transform" type="translate" keyTimes="0;1" values="-100 34.39004917281586;1777 34.39004917281586" dur="100s" repeatCount="indefinite" begin="-30.83139647191445s"></animateTransform>
  <path d="M84.717,33.597c0.791-2.503,1.186-5.138,1.186-7.773C85.903,11.594,74.308,0,60.079,0 c-9.881,0-18.445,5.534-22.793,13.702c-1.581-0.527-3.426-0.791-5.138-0.791c-9.486,0-17.128,7.642-17.128,17.128 c0,1.186,0.132,2.372,0.395,3.426C6.719,34.783,0,42.424,0,51.515C0,61.66,8.169,69.829,18.314,69.829h63.373 C91.831,69.829,100,61.66,100,51.515C99.868,42.556,93.281,35.046,84.717,33.597z" fill="#5684b2" transform="scale(1)"></path>
</g><g transform="translate(-100 410.77149958624466) rotate(0)">
  <animateTransform attributeName="transform" type="translate" keyTimes="0;1" values="-100 410.77149958624466;1777 410.77149958624466" dur="100s" repeatCount="indefinite" begin="-24.438879681394504s"></animateTransform>
  <path d="M84.717,33.597c0.791-2.503,1.186-5.138,1.186-7.773C85.903,11.594,74.308,0,60.079,0 c-9.881,0-18.445,5.534-22.793,13.702c-1.581-0.527-3.426-0.791-5.138-0.791c-9.486,0-17.128,7.642-17.128,17.128 c0,1.186,0.132,2.372,0.395,3.426C6.719,34.783,0,42.424,0,51.515C0,61.66,8.169,69.829,18.314,69.829h63.373 C91.831,69.829,100,61.66,100,51.515C99.868,42.556,93.281,35.046,84.717,33.597z" fill="#5684b2" transform="scale(1)"></path>
</g><g transform="translate(-100 177.515554686519) rotate(0)">
  <animateTransform attributeName="transform" type="translate" keyTimes="0;1" values="-100 177.515554686519;1777 177.515554686519" dur="100s" repeatCount="indefinite" begin="-41.11857230628638s"></animateTransform>
  <path d="M84.717,33.597c0.791-2.503,1.186-5.138,1.186-7.773C85.903,11.594,74.308,0,60.079,0 c-9.881,0-18.445,5.534-22.793,13.702c-1.581-0.527-3.426-0.791-5.138-0.791c-9.486,0-17.128,7.642-17.128,17.128 c0,1.186,0.132,2.372,0.395,3.426C6.719,34.783,0,42.424,0,51.515C0,61.66,8.169,69.829,18.314,69.829h63.373 C91.831,69.829,100,61.66,100,51.515C99.868,42.556,93.281,35.046,84.717,33.597z" fill="#5684b2" transform="scale(1)"></path>
</g><g transform="translate(-100 561.3365381817841) rotate(0)">
  <animateTransform attributeName="transform" type="translate" keyTimes="0;1" values="-100 561.3365381817841;1777 561.3365381817841" dur="100s" repeatCount="indefinite" begin="-59.800924918279826s"></animateTransform>
  <path d="M84.717,33.597c0.791-2.503,1.186-5.138,1.186-7.773C85.903,11.594,74.308,0,60.079,0 c-9.881,0-18.445,5.534-22.793,13.702c-1.581-0.527-3.426-0.791-5.138-0.791c-9.486,0-17.128,7.642-17.128,17.128 c0,1.186,0.132,2.372,0.395,3.426C6.719,34.783,0,42.424,0,51.515C0,61.66,8.169,69.829,18.314,69.829h63.373 C91.831,69.829,100,61.66,100,51.515C99.868,42.556,93.281,35.046,84.717,33.597z" fill="#5684b2" transform="scale(1)"></path>
</g><g transform="translate(-100 821.2977635814322) rotate(0)">
  <animateTransform attributeName="transform" type="translate" keyTimes="0;1" values="-100 821.2977635814322;1777 821.2977635814322" dur="100s" repeatCount="indefinite" begin="-28.83774681371434s"></animateTransform>
  <path d="M84.717,33.597c0.791-2.503,1.186-5.138,1.186-7.773C85.903,11.594,74.308,0,60.079,0 c-9.881,0-18.445,5.534-22.793,13.702c-1.581-0.527-3.426-0.791-5.138-0.791c-9.486,0-17.128,7.642-17.128,17.128 c0,1.186,0.132,2.372,0.395,3.426C6.719,34.783,0,42.424,0,51.515C0,61.66,8.169,69.829,18.314,69.829h63.373 C91.831,69.829,100,61.66,100,51.515C99.868,42.556,93.281,35.046,84.717,33.597z" fill="#5684b2" transform="scale(1)"></path>
</g><g transform="translate(-100 703.5839945769039) rotate(0)">
  <animateTransform attributeName="transform" type="translate" keyTimes="0;1" values="-100 703.5839945769039;1777 703.5839945769039" dur="100s" repeatCount="indefinite" begin="-27.06088451359115s"></animateTransform>
  <path d="M84.717,33.597c0.791-2.503,1.186-5.138,1.186-7.773C85.903,11.594,74.308,0,60.079,0 c-9.881,0-18.445,5.534-22.793,13.702c-1.581-0.527-3.426-0.791-5.138-0.791c-9.486,0-17.128,7.642-17.128,17.128 c0,1.186,0.132,2.372,0.395,3.426C6.719,34.783,0,42.424,0,51.515C0,61.66,8.169,69.829,18.314,69.829h63.373 C91.831,69.829,100,61.66,100,51.515C99.868,42.556,93.281,35.046,84.717,33.597z" fill="#5684b2" transform="scale(1)"></path>
</g><g transform="translate(-100 819.5934908742951) rotate(0)">
  <animateTransform attributeName="transform" type="translate" keyTimes="0;1" values="-100 819.5934908742951;1777 819.5934908742951" dur="100s" repeatCount="indefinite" begin="-22.70965777329952s"></animateTransform>
  <path d="M84.717,33.597c0.791-2.503,1.186-5.138,1.186-7.773C85.903,11.594,74.308,0,60.079,0 c-9.881,0-18.445,5.534-22.793,13.702c-1.581-0.527-3.426-0.791-5.138-0.791c-9.486,0-17.128,7.642-17.128,17.128 c0,1.186,0.132,2.372,0.395,3.426C6.719,34.783,0,42.424,0,51.515C0,61.66,8.169,69.829,18.314,69.829h63.373 C91.831,69.829,100,61.66,100,51.515C99.868,42.556,93.281,35.046,84.717,33.597z" fill="#5684b2" transform="scale(1)"></path>
</g><g transform="translate(-100 45.47124549836875) rotate(0)">
  <animateTransform attributeName="transform" type="translate" keyTimes="0;1" values="-100 45.47124549836875;1777 45.47124549836875" dur="100s" repeatCount="indefinite" begin="-59.78756205205941s"></animateTransform>
  <path d="M84.717,33.597c0.791-2.503,1.186-5.138,1.186-7.773C85.903,11.594,74.308,0,60.079,0 c-9.881,0-18.445,5.534-22.793,13.702c-1.581-0.527-3.426-0.791-5.138-0.791c-9.486,0-17.128,7.642-17.128,17.128 c0,1.186,0.132,2.372,0.395,3.426C6.719,34.783,0,42.424,0,51.515C0,61.66,8.169,69.829,18.314,69.829h63.373 C91.831,69.829,100,61.66,100,51.515C99.868,42.556,93.281,35.046,84.717,33.597z" fill="#5684b2" transform="scale(1)"></path>
</g><g transform="translate(-100 707.3704533040071) rotate(0)">
  <animateTransform attributeName="transform" type="translate" keyTimes="0;1" values="-100 707.3704533040071;1777 707.3704533040071" dur="100s" repeatCount="indefinite" begin="-17.322445945099307s"></animateTransform>
  <path d="M84.717,33.597c0.791-2.503,1.186-5.138,1.186-7.773C85.903,11.594,74.308,0,60.079,0 c-9.881,0-18.445,5.534-22.793,13.702c-1.581-0.527-3.426-0.791-5.138-0.791c-9.486,0-17.128,7.642-17.128,17.128 c0,1.186,0.132,2.372,0.395,3.426C6.719,34.783,0,42.424,0,51.515C0,61.66,8.169,69.829,18.314,69.829h63.373 C91.831,69.829,100,61.66,100,51.515C99.868,42.556,93.281,35.046,84.717,33.597z" fill="#5684b2" transform="scale(1)"></path>
</g><g transform="translate(-100 119.53911497196816) rotate(0)">
  <animateTransform attributeName="transform" type="translate" keyTimes="0;1" values="-100 119.53911497196816;1777 119.53911497196816" dur="100s" repeatCount="indefinite" begin="-10.130135973432086s"></animateTransform>
  <path d="M84.717,33.597c0.791-2.503,1.186-5.138,1.186-7.773C85.903,11.594,74.308,0,60.079,0 c-9.881,0-18.445,5.534-22.793,13.702c-1.581-0.527-3.426-0.791-5.138-0.791c-9.486,0-17.128,7.642-17.128,17.128 c0,1.186,0.132,2.372,0.395,3.426C6.719,34.783,0,42.424,0,51.515C0,61.66,8.169,69.829,18.314,69.829h63.373 C91.831,69.829,100,61.66,100,51.515C99.868,42.556,93.281,35.046,84.717,33.597z" fill="#5684b2" transform="scale(1)"></path>
</g><g transform="translate(-100 442.9956684610288) rotate(0)">
  <animateTransform attributeName="transform" type="translate" keyTimes="0;1" values="-100 442.9956684610288;1777 442.9956684610288" dur="100s" repeatCount="indefinite" begin="-61.23404405901572s"></animateTransform>
  <path d="M84.717,33.597c0.791-2.503,1.186-5.138,1.186-7.773C85.903,11.594,74.308,0,60.079,0 c-9.881,0-18.445,5.534-22.793,13.702c-1.581-0.527-3.426-0.791-5.138-0.791c-9.486,0-17.128,7.642-17.128,17.128 c0,1.186,0.132,2.372,0.395,3.426C6.719,34.783,0,42.424,0,51.515C0,61.66,8.169,69.829,18.314,69.829h63.373 C91.831,69.829,100,61.66,100,51.515C99.868,42.556,93.281,35.046,84.717,33.597z" fill="#5684b2" transform="scale(1)"></path>
</g></g>
</svg>